<svg width="7473" height="2444" viewBox="0 0 7473 2444" fill="none" xmlns="http://www.w3.org/2000/svg">
<g clip-path="url(#clip0_1878_1033)">
<mask id="mask0_1878_1033" style="mask-type:luminance" maskUnits="userSpaceOnUse" x="0" y="0" width="7473" height="2445">
<path d="M7473 0.000976562H0V2444H7473V0.000976562Z" fill="white"/>
</mask>
<g mask="url(#mask0_1878_1033)">
<path d="M2593.07 552.646C2937.49 511.427 3326.65 766.543 3351.64 1134.88C3356.17 1201.62 3366.09 1342.16 3325.14 1394.18C3295.32 1432.06 3202.58 1423.44 3156.54 1423.25L2970.76 1422.84C2726 1422.64 2453.57 1416.5 2210.87 1423.79C2237.87 1496.03 2286.13 1558.41 2349.26 1602.7C2477.01 1693.18 2613.27 1676.64 2761.41 1676.59L3098.78 1676.54L3360.63 1676.67C3414.68 1676.66 3474.77 1679.01 3528.01 1671.17C3542.71 1669.01 3556.38 1658.78 3566.59 1648.41C3623.81 1590.27 3691.63 1520.85 3745.74 1461.04C3791.6 1410.34 3907.12 1302.46 3938.69 1254.11C3919.93 1223.69 3844.49 1135.84 3818.86 1104.85C3722.13 988.249 3623.93 872.891 3524.26 758.795C3493.17 723.014 3417.04 639.65 3396.19 604.151C3394.96 588.93 3393.77 596.229 3401.18 581.746C3428.57 569.653 3693.88 575.488 3743.26 575.736C3768.88 593.778 3820.91 657.261 3843.38 683.158C3907.41 756.8 3970.95 830.853 4034.02 905.314C4068.33 945.687 4115.78 1005.18 4152.71 1039.94C4191.63 1002.52 4237.46 941.323 4271.77 897.828L4435.61 691.323C4460.55 660.101 4506.28 599.404 4535.55 575.991C4612.51 573.138 4701.31 575.327 4779.15 575.374C4807.13 574.655 4853.96 566.068 4866.49 595.476C4851.92 633.473 4727.07 787.384 4694.52 829.792L4363.18 1263.02C4392.18 1307.71 4456.4 1381.95 4491.6 1426.5L4767.78 1781.59C4809.31 1834.98 4851.5 1887.79 4893.18 1941.02C4903.6 1954.31 4900.59 1966.94 4891.87 1979.21C4851.87 1993.34 4606.16 1988.28 4550.59 1985.88C4516.27 1948.18 4485.27 1907.66 4453.1 1868.17C4372.25 1768.93 4292.73 1668.59 4210.41 1570.55C4187.1 1542.78 4164.11 1514.52 4136.73 1490.61C4033.48 1586.3 3938.91 1704.46 3837.35 1802.81C3790.87 1847.84 3746.75 1907.32 3691.94 1942.34C3600.13 2000.99 3474.87 1988.42 3369.91 1988.3L3044.61 1987.37L2718.87 1987.27C2623.91 1987.27 2519.09 1992.06 2427.15 1971.97C2317.88 1947.39 2216.18 1896.71 2130.78 1824.25C1985.87 1703.7 1894.99 1530.37 1878.26 1342.62C1861.91 1151 1923.76 960.908 2049.72 815.584C2195.36 645.914 2373.6 569.029 2593.07 552.646ZM2209.39 1141.09L2688.35 1140.33L3041.79 1141.91C2968.37 932.601 2786.36 853.419 2573.56 873.032C2402.1 897.821 2281.89 981.501 2209.39 1141.09Z" fill="#A89EE8"/>
<path d="M5517.25 548.444C5916.33 522.923 6260.4 826.073 6285.31 1225.19C6310.29 1624.31 6006.62 1967.93 5607.46 1992.28C5209.13 2016.58 4866.38 1713.69 4841.49 1315.4C4816.6 917.112 5118.99 573.911 5517.25 548.444ZM5624.55 1678.26C5848.17 1644.21 6001.59 1434.97 5966.83 1211.46C5932.06 987.948 5722.34 835.19 5498.94 870.669C5276.54 905.986 5124.62 1114.57 5159.23 1337.08C5193.84 1559.59 5401.93 1712.16 5624.55 1678.26Z" fill="#A89EE8"/>
<path d="M1007.16 552.713C1329.7 525.023 1662.82 747.441 1727.44 1069.57C1754.09 1202.42 1745.53 1343.07 1745.64 1478.59L1745.22 1986.72L1440.51 1986.31L1440.62 1497.39C1440.7 1412.51 1445.88 1254.5 1429.29 1177.55C1416.2 1114.96 1387.44 1056.71 1345.7 1008.26C1264.1 913.727 1166.7 878.148 1045.48 868.533C928.753 871.474 823.829 907.912 739.296 990.861C681.754 1048.08 641.609 1120.43 623.521 1199.54C607.36 1269.38 613.55 1428.3 613.705 1506.69L613.201 1986.79L303.746 1987.25L304.518 1516.41C304.424 1229.88 279.045 1029.23 488.007 791.057C623.864 636.212 804.794 564.53 1007.16 552.713Z" fill="#A89EE8"/>
<path d="M6568.19 540.742L6633.45 539.694L6632.91 1061.79C6761.69 929.647 6900.28 796.167 7031.88 665.782L7191.68 829.523C7068 948.433 6916.46 1095.51 6799.29 1220.61L7221.29 1221.34L7220.81 1448.96C7078.67 1447.73 6936.53 1448.12 6794.46 1450.15C6882.21 1546.18 6987.7 1647.65 7080.35 1740.55L7191 1850.96C7140.11 1905.58 7083.37 1961.42 7030.87 2014.9C6905.45 1886.22 6762.3 1738.2 6632.91 1614.24L6633.25 2124.98C6566.37 2121.68 6481.3 2124.52 6413.09 2124.93C6408.32 2063.07 6411.21 1966.28 6411.21 1900.98L6410.87 1486.15C6448.67 1441.83 6515.08 1378.39 6557.65 1335.18C6509.1 1290.08 6458.61 1238.9 6410.87 1192.36L6411.14 541.218C6462.5 542.058 6516.55 540.984 6568.19 540.742Z" fill="#A89EE8"/>
</g>
</g>
<defs>
<clipPath id="clip0_1878_1033">
<rect width="7473" height="2444" fill="white"/>
</clipPath>
</defs>
</svg>
